<?xml version="1.0" encoding="utf-8"?>
<svg viewBox="-37.855 -0.653 546.992 546.34" xmlns="http://www.w3.org/2000/svg" xmlns:bx="https://boxy-svg.com">
  <defs>
    <linearGradient id="color-0" gradientUnits="userSpaceOnUse" bx:pinned="true">
      <stop style="stop-color: rgb(60, 60, 60);"/>
    </linearGradient>
    <linearGradient id="color-1" gradientUnits="userSpaceOnUse" bx:pinned="true">
      <stop style="stop-color: rgb(190, 190, 190);"/>
    </linearGradient>
    <linearGradient id="gradient-1" bx:pinned="true">
      <stop offset="0" style="stop-color: rgb(93, 93, 93);"/>
      <stop offset="1" style="stop-color: rgb(238, 238, 238);"/>
    </linearGradient>
    <linearGradient gradientUnits="userSpaceOnUse" x1="160.875" y1="24.268" x2="160.875" y2="286.949" id="gradient-0" gradientTransform="matrix(0.001548, 0.999999, -0.238322, 0.000369, 276.467047, -39.4703)">
      <stop offset="0" style="stop-color: rgb(204, 204, 204);"/>
      <stop offset="1" style="stop-color: rgb(67, 67, 67);"/>
    </linearGradient>
    <radialGradient gradientUnits="userSpaceOnUse" cx="254.768" cy="301.311" r="35.359" id="gradient-2" gradientTransform="matrix(1, 0, 0, 1, -16.326102, -31.403022)">
      <stop offset="0" style="stop-color: rgb(252, 252, 252);"/>
      <stop offset="1" style="stop-color: rgb(48.42% 48.42% 48.42%)"/>
    </radialGradient>
    <linearGradient gradientUnits="userSpaceOnUse" x1="160.875" y1="24.268" x2="160.875" y2="286.949" id="gradient-3" gradientTransform="matrix(0.001548, 0.999999, -0.238322, 0.000369, 141.984996, 46.434102)">
      <stop offset="0" style="stop-color: rgb(204, 204, 204);"/>
      <stop offset="1" style="stop-color: rgb(67, 67, 67);"/>
    </linearGradient>
    <linearGradient gradientUnits="userSpaceOnUse" x1="160.875" y1="24.268" x2="160.875" y2="286.949" id="gradient-4" gradientTransform="matrix(0.001548, 0.999999, -0.238322, 0.000369, 181.859573, 200.681556)">
      <stop offset="0" style="stop-color: rgb(204, 204, 204);"/>
      <stop offset="1" style="stop-color: rgb(67, 67, 67);"/>
    </linearGradient>
    <linearGradient gradientUnits="userSpaceOnUse" x1="160.875" y1="24.268" x2="160.875" y2="286.949" id="gradient-5" gradientTransform="matrix(0.001548, 0.999998, -0.238322, 0.000369, 401.881302, 73.248473)">
      <stop offset="0" style="stop-color: rgb(204, 204, 204);"/>
      <stop offset="1" style="stop-color: rgb(67, 67, 67);"/>
    </linearGradient>
    <linearGradient gradientUnits="userSpaceOnUse" x1="160.875" y1="24.268" x2="160.875" y2="286.949" id="gradient-6" gradientTransform="matrix(0.001548, 0.999999, -0.238322, 0.000369, 341.01832, 210.359265)">
      <stop offset="0" style="stop-color: rgb(204, 204, 204);"/>
      <stop offset="1" style="stop-color: rgb(67, 67, 67);"/>
    </linearGradient>
  </defs>
  <path style="paint-order: fill; fill: url(&quot;#gradient-0&quot;); transform-box: fill-box; transform-origin: 50% 50%;" d="M 221.58 269.902 C 221.58 269.902 206.5437914784144 55.68424201981425 223.173 23.168 C 228.67360858609405 12.412279437019976 237.757112494008 7.065954863155245 244.959 7.224 C 252.28283208160587 7.3847212057397975 262.0408634427239 15.585102541179548 266.744 24.685 C 273.8643884722326 38.46193464248686 272.3188783060627 67.34811692037137 270.512 88.567 C 268.6731677710846 110.1611305717654 261.4775176194677 128.47324458737887 255.479 153.116 C 247.39513891011796 186.32564015860427 225.847 269.779 225.847 269.779" transform="matrix(0.996195, -0.087156, 0.087156, 0.996195, 0, 0.000001)" bx:d="M 221.58 269.902 R 223.173 23.168 R 244.959 7.224 R 266.744 24.685 R 270.512 88.567 R 255.479 153.116 R 225.847 269.779 1@e49fe63d"/>
  <path style="paint-order: fill; fill: url(&quot;#gradient-3&quot;); transform-box: fill-box; transform-origin: 50% 50%;" d="M 87.1 355.805 C 87.1 355.805 72.06383301661536 141.58815974789513 88.693 109.072 C 94.1936059924713 98.31628485563131 103.277112494008 92.96995486315525 110.479 93.128 C 117.8028320816058 93.2887212057398 127.560872886802 101.48913107828011 132.264 110.589 C 139.38431863654782 124.36578398094714 137.83884722188134 153.2513664836154 136.032 174.47 C 134.19318506254268 196.06404502486663 126.99751761946766 214.37624458737886 120.999 239.019 C 112.91513891011793 272.22864015860426 91.367 355.682 91.367 355.682" transform="matrix(0.224951, -0.97437, 0.97437, 0.224951, -0.000015, -0.000014)" bx:d="M 87.1 355.805 R 88.693 109.072 R 110.479 93.128 R 132.264 110.589 R 136.032 174.47 R 120.999 239.019 R 91.367 355.682 1@844df7fc"/>
  <path style="paint-order: fill; fill: url(&quot;#gradient-4&quot;); transform-origin: 149.081px 378.712px;" d="M 126.973 510.052 C 126.973 510.052 111.93683301661537 295.83515974789515 128.566 263.319 C 134.0666059924713 252.5632848556313 143.15011249400803 247.2169548631553 150.352 247.375 C 157.67583208160582 247.53572120573975 167.4338634427239 255.73610254117952 172.137 264.836 C 179.25738847223252 278.61293464248683 177.7118783060627 307.4991169203713 175.905 328.718 C 174.0661677710846 350.31213057176535 166.8705324713835 368.62429323411044 160.872 393.267 C 152.7881514416683 426.4764408946132 131.24 509.929 131.24 509.929" transform="matrix(-0.857167, -0.515038, 0.515038, -0.857167, 0.000009, 0.00003)" bx:d="M 126.973 510.052 R 128.566 263.319 R 150.352 247.375 R 172.137 264.836 R 175.905 328.718 R 160.872 393.267 R 131.24 509.929 1@e58f1a79"/>
  <path style="paint-order: fill; fill: url(&quot;#gradient-5&quot;); transform-origin: 369.102px 251.28px;" d="M 346.994 382.621 C 346.994 382.621 331.9577914784143 168.40324201981426 348.587 135.887 C 354.087608586094 125.13127943701998 363.17111249400796 119.78495486315522 370.373 119.943 C 377.69683208160575 120.10372120573979 387.4548634427239 128.30410254117953 392.158 137.404 C 399.2783884722326 151.18093464248685 397.7328783060627 180.06711692037138 395.926 201.286 C 394.0871677710845 222.8801305717654 386.89151761946755 241.19224458737887 380.893 265.835 C 372.80913891011795 299.0446401586043 351.261 382.498 351.261 382.498" transform="matrix(0.309017, 0.951057, -0.951057, 0.309017, -0.000015, 0.000007)" bx:d="M 346.994 382.621 R 348.587 135.887 R 370.373 119.943 R 392.158 137.404 R 395.926 201.286 R 380.893 265.835 R 351.261 382.498 1@e373c1b4"/>
  <path style="paint-order: fill; fill: url(&quot;#gradient-6&quot;); transform-origin: 308.24px 388.393px;" d="M 286.132 519.734 C 286.132 519.734 271.0957914784145 305.51624201981434 287.725 273 C 293.225608586094 262.24427943702 302.30911249400816 256.8979548631553 309.511 257.056 C 316.8348320816059 257.2167212057398 326.59286344272385 265.41710254117953 331.296 274.517 C 338.41638847223254 288.2939346424869 336.8708783060626 317.18011692037135 335.064 338.399 C 333.22516777108456 359.99313057176533 326.02951761946764 378.30524458737887 320.031 402.948 C 311.947138910118 436.15764015860424 290.399 519.611 290.399 519.611" transform="matrix(-0.75471, 0.656059, -0.656059, -0.75471, -0.000015, -0.000003)" bx:d="M 286.132 519.734 R 287.725 273 R 309.511 257.056 R 331.296 274.517 R 335.064 338.399 R 320.031 402.948 R 290.399 519.611 1@7e362bc5"/>
  <ellipse style="fill: url(&quot;#gradient-2&quot;); transform-box: fill-box; transform-origin: 50% 50%;" cx="238.441" cy="269.908" rx="35.359" ry="35.359" transform="matrix(0.996195, -0.087156, 0.087156, 0.996195, -3.587204, 3.897977)"/>
  <ellipse style="stroke: rgb(0, 0, 0); fill: none;" cx="235.521" cy="273.144" rx="266.289" ry="266.289"/>
</svg>