<?xml version="1.0" encoding="utf-8"?>
<svg viewBox="-137.002 -37.129 1306.882 626.376" xmlns="http://www.w3.org/2000/svg" xmlns:bx="https://boxy-svg.com">
  <defs>
    <linearGradient id="color-0" gradientUnits="userSpaceOnUse" bx:pinned="true">
      <stop style="stop-color: rgb(60, 60, 60);"/>
    </linearGradient>
    <linearGradient id="color-1" gradientUnits="userSpaceOnUse" bx:pinned="true">
      <stop style="stop-color: rgb(190, 190, 190);"/>
    </linearGradient>
    <linearGradient id="gradient-1" bx:pinned="true">
      <stop offset="0" style="stop-color: rgb(93, 93, 93);"/>
      <stop offset="1" style="stop-color: rgb(238, 238, 238);"/>
    </linearGradient>
    <linearGradient gradientUnits="userSpaceOnUse" x1="160.875" y1="24.268" x2="160.875" y2="286.949" id="gradient-0" gradientTransform="matrix(0.001548, 0.999999, -0.238322, 0.000369, 240.942505, -34.099903)">
      <stop offset="0" style="stop-color: rgb(204, 204, 204);"/>
      <stop offset="1" style="stop-color: rgb(67, 67, 67);"/>
    </linearGradient>
    <radialGradient gradientUnits="userSpaceOnUse" cx="254.768" cy="301.311" r="35.359" id="gradient-2" gradientTransform="matrix(1, 0, 0, 1, -66.442673, -24.935364)">
      <stop offset="0" style="stop-color: rgb(252, 252, 252);"/>
      <stop offset="1" style="stop-color: rgb(48.42% 48.42% 48.42%)"/>
    </radialGradient>
    <linearGradient gradientUnits="userSpaceOnUse" x1="160.875" y1="24.268" x2="160.875" y2="286.949" id="gradient-3" gradientTransform="matrix(0.001548, 0.999999, -0.238322, 0.000369, 200.967669, 227.967194)">
      <stop offset="0" style="stop-color: rgb(204, 204, 204);"/>
      <stop offset="1" style="stop-color: rgb(67, 67, 67);"/>
    </linearGradient>
    <linearGradient gradientUnits="userSpaceOnUse" x1="160.875" y1="24.268" x2="160.875" y2="286.949" id="gradient-4" gradientTransform="matrix(0.001337, 0.864399, -0.206006, 0.000319, 918.935302, 7.436646)">
      <stop offset="0" style="stop-color: rgb(204, 204, 204);"/>
      <stop offset="1" style="stop-color: rgb(67, 67, 67);"/>
    </linearGradient>
    <radialGradient gradientUnits="userSpaceOnUse" cx="254.768" cy="301.311" r="35.359" id="gradient-6" gradientTransform="matrix(1, 0, 0, 1, 578.254968, -15.692146)">
      <stop offset="0" style="stop-color: rgb(252, 252, 252);"/>
      <stop offset="1" style="stop-color: rgb(48.42% 48.42% 48.42%)"/>
    </radialGradient>
    <linearGradient gradientUnits="userSpaceOnUse" x1="160.875" y1="24.268" x2="160.875" y2="286.949" id="gradient-5" gradientTransform="matrix(0.001338, 0.864399, -0.206006, 0.000319, 884.44988, 235.597571)">
      <stop offset="0" style="stop-color: rgb(204, 204, 204);"/>
      <stop offset="1" style="stop-color: rgb(67, 67, 67);"/>
    </linearGradient>
  </defs>
  <path style="paint-order: fill; fill: url('#gradient-0');" d="M 186.056 275.273 C 186.056 275.273 171.01979147841445 61.055242019814266 187.649 28.539 C 193.149608586094 17.783279437019978 202.23311249400797 12.436954863155238 209.435 12.595 C 216.75883208160585 12.755721205739796 226.51686344272386 20.956102541179558 231.22 30.056 C 238.34038847223258 43.832934642486855 236.79487830606274 72.71911692037139 234.988 93.938 C 233.14916777108456 115.5321305717654 225.9535176194677 133.8442445873789 219.955 158.487 C 211.87113891011796 191.69664015860428 190.323 275.15 190.323 275.15" bx:d="M 186.056 275.273 R 187.649 28.539 R 209.435 12.595 R 231.22 30.056 R 234.988 93.938 R 219.955 158.487 R 190.323 275.15 1@85af61a1"/>
  <path style="paint-order: fill; fill: url('#gradient-3'); transform-box: fill-box; transform-origin: 50% 50%;" d="M 146.082 537.34 C 146.082 537.34 131.04579147841451 323.12224201981434 147.675 290.606 C 153.175608586094 279.85027943702 162.25911249400804 274.5039548631553 169.461 274.662 C 176.78483208160583 274.82272120573975 186.54286344272387 283.0231025411795 191.246 292.123 C 198.36638847223256 305.8999346424868 196.82087830606272 334.7861169203713 195.014 356.005 C 193.17516777108457 377.5991305717654 185.97951761946766 395.91124458737886 179.981 420.554 C 171.89713891011797 453.76364015860423 150.349 537.217 150.349 537.217" transform="matrix(-1, 0, 0, -1, -0.000028, 0.000007)" bx:d="M 146.082 537.34 R 147.675 290.606 R 169.461 274.662 R 191.246 292.123 R 195.014 356.005 R 179.981 420.554 R 150.349 537.217 1@66de2ba1"/>
  <path style="paint-order: fill; fill: url('#gradient-4'); transform-box: fill-box; transform-origin: 50% 50%;" d="M 871.492 274.858 C 871.492 274.858 858.494625396089 89.68805597593253 872.869 61.581 C 877.6237686198122 52.28372262743817 885.4756709034981 47.66230383916608 891.701 47.799 C 898.0317809754173 47.938011679704815 906.4666208464436 55.026857529444094 910.532 62.893 C 916.6867506079416 74.80188803334747 915.3509351713805 99.7705694933163 913.789 118.112 C 912.1994345682739 136.77788603422778 905.9792108715911 152.6068136240637 900.794 173.908 C 893.806166306703 202.61447916760264 875.18 274.752 875.18 274.752" transform="matrix(1, -0.000001, 0.000001, 1, 0, 0)" bx:d="M 871.492 274.858 R 872.869 61.581 R 891.701 47.799 R 910.532 62.893 R 913.789 118.112 R 900.794 173.908 R 875.18 274.752 1@3b97af0e"/>
  <path style="paint-order: fill; fill: url('#gradient-5'); transform-origin: 856.116px 389.489px;" d="M 837.006 503.02 C 837.006 503.02 824.008625396089 317.85005597593255 838.383 289.743 C 843.1377686198123 280.44572262743816 850.9896709034981 275.824303839166 857.215 275.961 C 863.545780975417 276.1000116797048 871.9806208464436 283.18885752944414 876.046 291.055 C 882.2007506079417 302.9638880333474 880.8649351713805 327.9325694933163 879.303 346.274 C 877.7134345682737 364.9398860342278 871.4932108715917 380.7688136240638 866.308 402.07 C 859.3201663067027 430.7764791676026 840.694 502.914 840.694 502.914" transform="matrix(-1, 0, 0, -1, -0.000052, -0.000029)" bx:d="M 837.006 503.02 R 838.383 289.743 R 857.215 275.961 R 876.046 291.055 R 879.303 346.274 R 866.308 402.07 R 840.694 502.914 1@113663ac"/>
  <ellipse style="fill: url('#gradient-2');" cx="188.325" cy="276.377" rx="35.359" ry="35.359"/>
  <ellipse style="fill: url('#gradient-6'); transform-box: fill-box; transform-origin: 50% 50%;" cx="833.208" cy="285.686" rx="35.359" ry="35.359" transform="matrix(0.996195, -0.087156, 0.087156, 0.996195, 39.868419, -9.00902)"/>
  <ellipse style="fill: none; stroke: rgb(0, 0, 0);" cx="190.184" cy="274.457" rx="262.987" ry="262.987"/>
  <ellipse style="fill: none; stroke: rgb(0, 0, 0);" cx="872.95" cy="275.359" rx="228.93" ry="228.93"/>
  <path d="M 431.876 251.966 H 602.187 L 602.187 229.043 L 665.422 276.47 L 602.187 323.896 L 602.187 300.973 H 431.876 V 251.966 Z" style="fill: rgb(216, 216, 216); stroke: rgb(0, 0, 0); stroke-width: 2px;" bx:shape="arrow 431.876 229.043 233.546 94.853 49.007 63.235 0 1@49a02e73"/>
</svg>