<?xml version="1.0" encoding="utf-8"?>
<svg viewBox="-137.002 -37.129 1306.882 626.376" xmlns="http://www.w3.org/2000/svg" xmlns:bx="https://boxy-svg.com">
  <defs>
    <linearGradient id="color-0" gradientUnits="userSpaceOnUse" bx:pinned="true">
      <stop style="stop-color: rgb(60, 60, 60);"/>
    </linearGradient>
    <linearGradient id="color-1" gradientUnits="userSpaceOnUse" bx:pinned="true">
      <stop style="stop-color: rgb(190, 190, 190);"/>
    </linearGradient>
    <linearGradient id="gradient-1" bx:pinned="true">
      <stop offset="0" style="stop-color: rgb(93, 93, 93);"/>
      <stop offset="1" style="stop-color: rgb(238, 238, 238);"/>
    </linearGradient>
    <linearGradient gradientUnits="userSpaceOnUse" x1="160.875" y1="24.268" x2="160.875" y2="286.949" id="gradient-0" gradientTransform="matrix(0.001548, 0.999999, -0.238322, 0.000369, 205.942505, -34.099903)">
      <stop offset="0" style="stop-color: rgb(204, 204, 204);"/>
      <stop offset="1" style="stop-color: rgb(67, 67, 67);"/>
    </linearGradient>
    <radialGradient gradientUnits="userSpaceOnUse" cx="254.768" cy="301.311" r="35.359" id="gradient-2" gradientTransform="matrix(1, 0, 0, 1, -101.442673, -24.935364)">
      <stop offset="0" style="stop-color: rgb(252, 252, 252);"/>
      <stop offset="1" style="stop-color: rgb(48.42% 48.42% 48.42%)"/>
    </radialGradient>
    <linearGradient gradientUnits="userSpaceOnUse" x1="160.875" y1="24.268" x2="160.875" y2="286.949" id="gradient-3" gradientTransform="matrix(0.001548, 0.999999, -0.238322, 0.000369, 165.967709, 227.967194)">
      <stop offset="0" style="stop-color: rgb(204, 204, 204);"/>
      <stop offset="1" style="stop-color: rgb(67, 67, 67);"/>
    </linearGradient>
    <linearGradient gradientUnits="userSpaceOnUse" x1="160.875" y1="24.268" x2="160.875" y2="286.949" id="gradient-4" gradientTransform="matrix(0.001539, 0.994408, -0.23699, 0.000367, 914.705016, -33.821925)">
      <stop offset="0" style="stop-color: rgb(204, 204, 204);"/>
      <stop offset="1" style="stop-color: rgb(67, 67, 67);"/>
    </linearGradient>
    <radialGradient gradientUnits="userSpaceOnUse" cx="254.768" cy="301.311" r="35.359" id="gradient-6" gradientTransform="matrix(1.150404, 0, 0, 1.150404, 539.826619, -61.048683)">
      <stop offset="0" style="stop-color: rgb(252, 252, 252);"/>
      <stop offset="1" style="stop-color: rgb(48.42% 48.42% 48.42%)"/>
    </radialGradient>
    <linearGradient gradientUnits="userSpaceOnUse" x1="160.875" y1="24.268" x2="160.875" y2="286.949" id="gradient-5" gradientTransform="matrix(0.001538, 0.994408, -0.23699, 0.000367, 1017.584566, 172.55726)">
      <stop offset="0" style="stop-color: rgb(204, 204, 204);"/>
      <stop offset="1" style="stop-color: rgb(67, 67, 67);"/>
    </linearGradient>
    <linearGradient gradientUnits="userSpaceOnUse" x1="160.875" y1="24.268" x2="160.875" y2="286.949" id="gradient-7" gradientTransform="matrix(0.001539, 0.994407, -0.23699, 0.000367, 786.9235, 158.38488)">
      <stop offset="0" style="stop-color: rgb(204, 204, 204);"/>
      <stop offset="1" style="stop-color: rgb(67, 67, 67);"/>
    </linearGradient>
  </defs>
  <path style="paint-order: fill; fill: url('#gradient-0');" d="M 151.056 275.273 C 151.056 275.273 136.01979147841442 61.055242019814266 152.649 28.539 C 158.14960858609402 17.783279437019978 167.23311249400797 12.436954863155238 174.435 12.595 C 181.75883208160582 12.755721205739796 191.51686344272392 20.956102541179558 196.22 30.056 C 203.34038847223258 43.832934642486855 201.79487830606269 72.71911692037139 199.988 93.938 C 198.14916777108462 115.5321305717654 190.95351761946765 133.8442445873789 184.955 158.487 C 176.87113891011802 191.69664015860428 155.323 275.15 155.323 275.15" bx:d="M 151.056 275.273 R 152.649 28.539 R 174.435 12.595 R 196.22 30.056 R 199.988 93.938 R 184.955 158.487 R 155.323 275.15 1@825d903f"/>
  <path style="paint-order: fill; fill: url('#gradient-3'); transform-box: fill-box; transform-origin: 50% 50%;" d="M 111.082 537.34 C 111.082 537.34 96.04579147841446 323.12224201981434 112.675 290.606 C 118.175608586094 279.85027943702 127.25911249400801 274.5039548631552 134.461 274.662 C 141.78483208160574 274.82272120573964 151.54286344272387 283.0231025411795 156.246 292.123 C 163.3663884722326 305.8999346424868 161.8208783060627 334.7861169203713 160.014 356.005 C 158.1751677710846 377.5991305717654 150.97951761946766 395.91124458737886 144.981 420.554 C 136.89713891011797 453.76364015860423 115.349 537.217 115.349 537.217" transform="matrix(-1, 0, 0, -1, 0.00001, 0.000007)" bx:d="M 111.082 537.34 R 112.675 290.606 R 134.461 274.662 R 156.246 292.123 R 160.014 356.005 R 144.981 420.554 R 115.349 537.217 1@cac10555"/>
  <ellipse style="fill: url('#gradient-2');" cx="153.325" cy="276.377" rx="35.359" ry="35.359"/>
  <path style="paint-order: fill; fill: url('#gradient-4'); transform-box: fill-box; transform-origin: 50% 50%;" d="M 860.125 273.821 C 860.125 273.821 845.172197461365 60.79983574676387 861.709 28.466 C 867.179051745917 17.770597774233153 876.2122807629679 12.454601546693274 883.374 12.612 C 890.6569949046448 12.772063819243897 900.3602059211937 20.92684701614663 905.037 29.976 C 912.1174307674928 43.67596200965463 910.5807497662283 72.3999699503188 908.784 93.5 C 906.9554647838575 114.97330069701638 899.8000512189768 133.18304935440204 893.835 157.688 C 885.7962199175817 190.71200967552326 864.368 273.699 864.368 273.699" transform="matrix(0.996195, -0.087156, 0.087156, 0.996195, -0.000001, -0.000001)" bx:d="M 860.125 273.821 R 861.709 28.466 R 883.374 12.612 R 905.037 29.976 R 908.784 93.5 R 893.835 157.688 R 864.368 273.699 1@b68c3222"/>
  <path style="paint-order: fill; fill: url('#gradient-5'); transform-box: fill-box; transform-origin: 50% 50%;" d="M 962.993 480.204 C 962.993 480.204 948.0404216676749 267.18359612584334 964.577 234.849 C 970.0470377463898 224.15322861560827 979.0802423729219 218.8367083943214 986.242 218.994 C 993.5249538405542 219.15395340296539 1003.2282059211936 227.30884701614664 1007.905 236.358 C 1014.9854307674929 250.05796200965463 1013.4488759968419 278.7819021961551 1011.652 299.882 C 1009.8233196616552 321.3555652648623 1002.6671743949395 339.5657159996257 996.702 364.071 C 988.6631354182388 397.09512412011446 967.236 480.082 967.236 480.082" transform="matrix(-0.422618, 0.906308, -0.906308, -0.422618, -0.000009, 0.000004)" bx:d="M 962.993 480.204 R 964.577 234.849 R 986.242 218.994 R 1007.905 236.358 R 1011.652 299.882 R 996.702 364.071 R 967.236 480.082 1@a438be7c"/>
  <path style="paint-order: fill; fill: url('#gradient-7'); transform-origin: 754.307px 335.428px;" d="M 732.323 466.035 C 732.323 466.035 717.3712818907957 253.01366982020286 733.907 220.679 C 739.3765776382431 209.9835475363962 748.4086834243319 204.66687569974331 755.57 204.824 C 762.8527242353089 204.98378806932286 772.5561964773489 213.13881847855652 777.233 222.188 C 784.3135006020239 235.8881126731283 782.7766253339831 264.61270252187774 780.98 285.713 C 779.1516089050237 307.18636747434874 771.9968535593259 325.39607345788016 766.032 349.901 C 757.993472460486 382.92503401917907 736.565 465.912 736.565 465.912" transform="matrix(-0.573577, -0.819152, 0.819152, -0.573577, -0.000023, -0.000034)" bx:d="M 732.323 466.035 R 733.907 220.679 R 755.57 204.824 R 777.233 222.188 R 780.98 285.713 R 766.032 349.901 R 736.565 465.912 1@c6845ccb"/>
  <ellipse style="fill: url('#gradient-6'); transform-box: fill-box; transform-origin: 50% 50%;" cx="833.208" cy="285.686" rx="40.677" ry="40.677" transform="matrix(0.996195, -0.087156, 0.087156, 0.996195, 39.905429, -7.976912)"/>
  <ellipse style="fill: none; stroke: rgb(0, 0, 0);" cx="155.184" cy="274.457" rx="262.987" ry="262.987"/>
  <ellipse style="fill: none; stroke: rgb(0, 0, 0);" cx="872.888" cy="276.171" rx="263.362" ry="263.362"/>
  <path d="M 396.876 251.966 H 567.187 L 567.187 229.043 L 630.422 276.47 L 567.187 323.896 L 567.187 300.973 H 396.876 V 251.966 Z" style="fill: rgb(216, 216, 216); stroke: rgb(0, 0, 0); stroke-width: 2px;" bx:shape="arrow 396.876 229.043 233.546 94.853 49.007 63.235 0 1@3e95eb87"/>
</svg>