<?xml version="1.0" encoding="utf-8"?>
<svg viewBox="-137.002 -37.129 1306.882 626.376" xmlns="http://www.w3.org/2000/svg" xmlns:bx="https://boxy-svg.com">
  <defs>
    <linearGradient id="color-0" gradientUnits="userSpaceOnUse" bx:pinned="true">
      <stop style="stop-color: rgb(60, 60, 60);"/>
    </linearGradient>
    <linearGradient id="color-1" gradientUnits="userSpaceOnUse" bx:pinned="true">
      <stop style="stop-color: rgb(190, 190, 190);"/>
    </linearGradient>
    <linearGradient id="gradient-1" bx:pinned="true">
      <stop offset="0" style="stop-color: rgb(93, 93, 93);"/>
      <stop offset="1" style="stop-color: rgb(238, 238, 238);"/>
    </linearGradient>
    <linearGradient gradientUnits="userSpaceOnUse" x1="160.875" y1="24.268" x2="160.875" y2="286.949" id="gradient-0" gradientTransform="matrix(0.001548, 0.999999, -0.238322, 0.000369, 240.942505, -34.099903)">
      <stop offset="0" style="stop-color: rgb(204, 204, 204);"/>
      <stop offset="1" style="stop-color: rgb(67, 67, 67);"/>
    </linearGradient>
    <radialGradient gradientUnits="userSpaceOnUse" cx="254.768" cy="301.311" r="35.359" id="gradient-2" gradientTransform="matrix(1, 0, 0, 1, -66.442673, -24.935364)">
      <stop offset="0" style="stop-color: rgb(252, 252, 252);"/>
      <stop offset="1" style="stop-color: rgb(48.42% 48.42% 48.42%)"/>
    </radialGradient>
    <linearGradient gradientUnits="userSpaceOnUse" x1="160.875" y1="24.268" x2="160.875" y2="286.949" id="gradient-3" gradientTransform="matrix(0.001548, 0.999999, -0.238322, 0.000369, 200.967669, 227.967194)">
      <stop offset="0" style="stop-color: rgb(204, 204, 204);"/>
      <stop offset="1" style="stop-color: rgb(67, 67, 67);"/>
    </linearGradient>
    <linearGradient gradientUnits="userSpaceOnUse" x1="160.875" y1="24.268" x2="160.875" y2="286.949" id="gradient-4" gradientTransform="matrix(0.001338, 0.864399, -0.206006, 0.000319, 909.299804, 5.894361)">
      <stop offset="0" style="stop-color: rgb(204, 204, 204);"/>
      <stop offset="1" style="stop-color: rgb(67, 67, 67);"/>
    </linearGradient>
    <radialGradient gradientUnits="userSpaceOnUse" cx="254.768" cy="301.311" r="35.359" id="gradient-6" gradientTransform="matrix(1, 0, 0, 1, 578.254968, -15.692146)">
      <stop offset="0" style="stop-color: rgb(252, 252, 252);"/>
      <stop offset="1" style="stop-color: rgb(48.42% 48.42% 48.42%)"/>
    </radialGradient>
    <linearGradient gradientUnits="userSpaceOnUse" x1="160.875" y1="24.268" x2="160.875" y2="286.949" id="gradient-5" gradientTransform="matrix(0.001337, 0.864399, -0.206006, 0.000319, 998.723359, 185.291856)">
      <stop offset="0" style="stop-color: rgb(204, 204, 204);"/>
      <stop offset="1" style="stop-color: rgb(67, 67, 67);"/>
    </linearGradient>
    <linearGradient gradientUnits="userSpaceOnUse" x1="160.875" y1="24.268" x2="160.875" y2="286.949" id="gradient-7" gradientTransform="matrix(0.001338, 0.864398, -0.206006, 0.000319, 798.215979, 172.973428)">
      <stop offset="0" style="stop-color: rgb(204, 204, 204);"/>
      <stop offset="1" style="stop-color: rgb(67, 67, 67);"/>
    </linearGradient>
  </defs>
  <path style="paint-order: fill; fill: url('#gradient-0');" d="M 186.056 275.273 C 186.056 275.273 171.01979147841445 61.055242019814266 187.649 28.539 C 193.149608586094 17.783279437019978 202.23311249400797 12.436954863155238 209.435 12.595 C 216.75883208160585 12.755721205739796 226.51686344272386 20.956102541179558 231.22 30.056 C 238.34038847223258 43.832934642486855 236.79487830606274 72.71911692037139 234.988 93.938 C 233.14916777108456 115.5321305717654 225.9535176194677 133.8442445873789 219.955 158.487 C 211.87113891011796 191.69664015860428 190.323 275.15 190.323 275.15" bx:d="M 186.056 275.273 R 187.649 28.539 R 209.435 12.595 R 231.22 30.056 R 234.988 93.938 R 219.955 158.487 R 190.323 275.15 1@85af61a1"/>
  <path style="paint-order: fill; fill: url('#gradient-3'); transform-box: fill-box; transform-origin: 50% 50%;" d="M 146.082 537.34 C 146.082 537.34 131.04579147841451 323.12224201981434 147.675 290.606 C 153.175608586094 279.85027943702 162.25911249400804 274.5039548631553 169.461 274.662 C 176.78483208160583 274.82272120573975 186.54286344272387 283.0231025411795 191.246 292.123 C 198.36638847223256 305.8999346424868 196.82087830606272 334.7861169203713 195.014 356.005 C 193.17516777108457 377.5991305717654 185.97951761946766 395.91124458737886 179.981 420.554 C 171.89713891011797 453.76364015860423 150.349 537.217 150.349 537.217" transform="matrix(-1, 0, 0, -1, -0.000028, 0.000007)" bx:d="M 146.082 537.34 R 147.675 290.606 R 169.461 274.662 R 191.246 292.123 R 195.014 356.005 R 179.981 420.554 R 150.349 537.217 1@66de2ba1"/>
  <ellipse style="fill: url('#gradient-2');" cx="188.325" cy="276.377" rx="35.359" ry="35.359"/>
  <path style="paint-order: fill; fill: url('#gradient-4'); transform-box: fill-box; transform-origin: 50% 50%;" d="M 861.856 273.316 C 861.856 273.316 848.8586253960888 88.14605597593253 863.233 60.039 C 867.9877686198122 50.74172262743814 875.8396709034981 46.120303839166056 882.065 46.257 C 888.3957809754171 46.39601167970482 896.8306208464434 53.4848575294441 900.896 61.351 C 907.0507506079415 73.25988803334747 905.7149351713805 98.22856949331631 904.153 116.57 C 902.5634345682738 135.23588603422775 896.3432108715914 151.06481362406373 891.158 172.366 C 884.170166306703 201.07247916760267 865.544 273.21 865.544 273.21" transform="matrix(0.996195, -0.087156, 0.087156, 0.996195, 0.000002, 0)" bx:d="M 861.856 273.316 R 863.233 60.039 R 882.065 46.257 R 900.896 61.351 R 904.153 116.57 R 891.158 172.366 R 865.544 273.21 1@46e0ccde"/>
  <path style="paint-order: fill; fill: url('#gradient-5'); transform-box: fill-box; transform-origin: 50% 50%;" d="M 951.275 452.716 C 951.275 452.716 938.277625396089 267.54605597593246 952.652 239.439 C 957.4067686198123 230.14172262743818 965.2586709034983 225.52030383916605 971.484 225.657 C 977.8147809754169 225.79601167970478 986.2496208464433 232.88485752944405 990.315 240.751 C 996.4697506079415 252.6598880333475 995.133905889341 277.628483872728 993.572 295.97 C 991.9824508570808 314.63613183220525 985.7622528272476 330.4655674260021 980.577 351.767 C 973.5892017096662 380.47343324083687 954.963 452.61 954.963 452.61" transform="matrix(-0.422618, 0.906308, -0.906308, -0.422618, 0.00002, -0.000027)" bx:d="M 951.275 452.716 R 952.652 239.439 R 971.484 225.657 R 990.315 240.751 R 993.572 295.97 R 980.577 351.767 R 954.963 452.61 1@fc7569ba"/>
  <path style="paint-order: fill; fill: url('#gradient-7'); transform-origin: 769.872px 326.868px;" d="M 750.762 440.4 C 750.762 440.4 737.7650347410155 255.2291339583833 752.139 227.122 C 756.8935398621719 217.82487937888214 764.7448521160223 213.20348731467715 770.97 213.34 C 777.3006241220344 213.47882569776257 785.7355978405518 220.56711451842185 789.801 228.433 C 795.9559207270407 240.34176072975367 794.61981073981 265.311302064817 793.058 283.653 C 791.4685786895259 302.31895281065 785.2490132119498 318.14783772828 780.064 339.449 C 773.0764188492988 368.1555035118637 754.45 440.293 754.45 440.293" transform="matrix(-0.573577, -0.819152, 0.819152, -0.573577, 0.000052, -0.000032)" bx:d="M 750.762 440.4 R 752.139 227.122 R 770.97 213.34 R 789.801 228.433 R 793.058 283.653 R 780.064 339.449 R 754.45 440.293 1@bb71154e"/>
  <ellipse style="fill: url('#gradient-6'); transform-box: fill-box; transform-origin: 50% 50%;" cx="833.208" cy="285.686" rx="35.359" ry="35.359" transform="matrix(0.996195, -0.087156, 0.087156, 0.996195, 39.868419, -9.00902)"/>
  <ellipse style="fill: none; stroke: rgb(0, 0, 0);" cx="190.184" cy="274.457" rx="262.987" ry="262.987"/>
  <ellipse style="fill: none; stroke: rgb(0, 0, 0);" cx="872.95" cy="275.359" rx="228.93" ry="228.93"/>
  <path d="M 431.876 251.966 H 602.187 L 602.187 229.043 L 665.422 276.47 L 602.187 323.896 L 602.187 300.973 H 431.876 V 251.966 Z" style="fill: rgb(216, 216, 216); stroke: rgb(0, 0, 0); stroke-width: 2px;" bx:shape="arrow 431.876 229.043 233.546 94.853 49.007 63.235 0 1@49a02e73"/>
</svg>