<?xml version="1.0" encoding="utf-8"?>
<svg viewBox="-137.002 -37.129 1306.882 1039.534" xmlns="http://www.w3.org/2000/svg" xmlns:bx="https://boxy-svg.com">
  <defs>
    <linearGradient id="color-0" gradientUnits="userSpaceOnUse" bx:pinned="true">
      <stop style="stop-color: rgb(60, 60, 60);"/>
    </linearGradient>
    <linearGradient id="color-1" gradientUnits="userSpaceOnUse" bx:pinned="true">
      <stop style="stop-color: rgb(190, 190, 190);"/>
    </linearGradient>
    <linearGradient id="gradient-1" bx:pinned="true">
      <stop offset="0" style="stop-color: rgb(93, 93, 93);"/>
      <stop offset="1" style="stop-color: rgb(238, 238, 238);"/>
    </linearGradient>
    <linearGradient gradientUnits="userSpaceOnUse" x1="160.875" y1="24.268" x2="160.875" y2="286.949" id="gradient-0" gradientTransform="matrix(0.001548, 0.999999, -0.238322, 0.000369, 240.942505, -34.099903)">
      <stop offset="0" style="stop-color: rgb(204, 204, 204);"/>
      <stop offset="1" style="stop-color: rgb(67, 67, 67);"/>
    </linearGradient>
    <radialGradient gradientUnits="userSpaceOnUse" cx="254.768" cy="301.311" r="35.359" id="gradient-2" gradientTransform="matrix(1, 0, 0, 1, -66.442673, -24.935364)">
      <stop offset="0" style="stop-color: rgb(252, 252, 252);"/>
      <stop offset="1" style="stop-color: rgb(48.42% 48.42% 48.42%)"/>
    </radialGradient>
    <linearGradient gradientUnits="userSpaceOnUse" x1="160.875" y1="24.268" x2="160.875" y2="286.949" id="gradient-3" gradientTransform="matrix(0.001548, 0.999999, -0.238322, 0.000369, 200.967669, 227.967194)">
      <stop offset="0" style="stop-color: rgb(204, 204, 204);"/>
      <stop offset="1" style="stop-color: rgb(67, 67, 67);"/>
    </linearGradient>
    <linearGradient gradientUnits="userSpaceOnUse" x1="635" y1="703" x2="635" y2="800" id="gradient-7" gradientTransform="matrix(1, 0, 0, 1, -446.446564, -30.325928)">
      <stop offset="0" style="stop-color: rgb(248, 248, 248);"/>
      <stop offset="1" style="stop-color: rgb(129, 129, 129);"/>
    </linearGradient>
    <linearGradient gradientUnits="userSpaceOnUse" x1="635" y1="703" x2="635" y2="800" id="gradient-8" gradientTransform="matrix(1, 0, 0, 1, 237.417038, -34.369385)">
      <stop offset="0" style="stop-color: rgb(248, 248, 248);"/>
      <stop offset="1" style="stop-color: rgb(129, 129, 129);"/>
    </linearGradient>
    <linearGradient gradientUnits="userSpaceOnUse" x1="160.875" y1="24.268" x2="160.875" y2="286.949" id="gradient-4" gradientTransform="matrix(0.001548, 0.999999, -0.238322, 0.000369, 917.352539, -34.337528)">
      <stop offset="0" style="stop-color: rgb(204, 204, 204);"/>
      <stop offset="1" style="stop-color: rgb(67, 67, 67);"/>
    </linearGradient>
    <linearGradient gradientUnits="userSpaceOnUse" x1="160.875" y1="24.268" x2="160.875" y2="286.949" id="gradient-5" gradientTransform="matrix(0.001548, 0.999999, -0.238322, 0.000369, 877.384001, 227.728851)">
      <stop offset="0" style="stop-color: rgb(204, 204, 204);"/>
      <stop offset="1" style="stop-color: rgb(67, 67, 67);"/>
    </linearGradient>
    <radialGradient gradientUnits="userSpaceOnUse" cx="254.768" cy="301.311" r="35.359" id="gradient-6" gradientTransform="matrix(1, 0, 0, 1, 609.967346, -25.172993)">
      <stop offset="0" style="stop-color: rgb(252, 252, 252);"/>
      <stop offset="1" style="stop-color: rgb(48.42% 48.42% 48.42%)"/>
    </radialGradient>
  </defs>
  <path style="paint-order: fill; fill: url('#gradient-0');" d="M 186.056 275.273 C 186.056 275.273 171.01979147841445 61.055242019814266 187.649 28.539 C 193.149608586094 17.783279437019978 202.23311249400797 12.436954863155238 209.435 12.595 C 216.75883208160585 12.755721205739796 226.51686344272386 20.956102541179558 231.22 30.056 C 238.34038847223258 43.832934642486855 236.79487830606274 72.71911692037139 234.988 93.938 C 233.14916777108456 115.5321305717654 225.9535176194677 133.8442445873789 219.955 158.487 C 211.87113891011796 191.69664015860428 190.323 275.15 190.323 275.15" bx:d="M 186.056 275.273 R 187.649 28.539 R 209.435 12.595 R 231.22 30.056 R 234.988 93.938 R 219.955 158.487 R 190.323 275.15 1@85af61a1"/>
  <path style="paint-order: fill; fill: url('#gradient-3'); transform-box: fill-box; transform-origin: 50% 50%;" d="M 146.082 537.34 C 146.082 537.34 131.04579147841451 323.12224201981434 147.675 290.606 C 153.175608586094 279.85027943702 162.25911249400804 274.5039548631553 169.461 274.662 C 176.78483208160583 274.82272120573975 186.54286344272387 283.0231025411795 191.246 292.123 C 198.36638847223256 305.8999346424868 196.82087830606272 334.7861169203713 195.014 356.005 C 193.17516777108457 377.5991305717654 185.97951761946766 395.91124458737886 179.981 420.554 C 171.89713891011797 453.76364015860423 150.349 537.217 150.349 537.217" transform="matrix(-1, 0, 0, -1, -0.000028, 0.000007)" bx:d="M 146.082 537.34 R 147.675 290.606 R 169.461 274.662 R 191.246 292.123 R 195.014 356.005 R 179.981 420.554 R 150.349 537.217 1@66de2ba1"/>
  <ellipse style="fill: url('#gradient-2');" cx="188.325" cy="276.377" rx="35.359" ry="35.359"/>
  <ellipse style="fill: none; stroke: rgb(0, 0, 0);" cx="190.184" cy="274.457" rx="262.987" ry="262.987"/>
  <g>
    <rect x="-73.129" y="637.469" width="526" height="214.587" style="stroke: rgb(0, 0, 0); fill: none;"/>
    <line style="fill: rgb(216, 216, 216); stroke: rgb(0, 0, 0);" x1="-72.993" y1="637.583" x2="452.241" y2="851.579"/>
  </g>
  <path style="fill: url('#gradient-7');" d="M 153.553 769.674 C 153.553 769.674 176.8863333333333 672.6739999999999 188.553 672.674 C 200.21966666666663 672.6739999999998 223.553 769.674 223.553 769.674" bx:d="M 153.553 769.674 R 188.553 672.674 R 223.553 769.674 1@f98cc7d3"/>
  <path style="" d="M 219.14 757.116 C 219.14 757.116 173.37680122993345 747.8017233643193 167.678 741.987 C 165.6673038401027 739.9354032750449 164.91703988699683 736.9316865894166 165.924 735.544 C 167.52973066826482 733.3311507661602 176.46584757114303 733.0503317477159 182.883 734.703 C 193.05038035376256 737.3214989223567 219.14 757.116 219.14 757.116 C 219.14000000000001 757.1160000000001 219.14 757.116 219.14 757.116 C 219.14 757.116 219.14 757.1160000000001 219.14 757.116" bx:d="M 219.14 757.116 R 167.678 741.987 R 165.924 735.544 R 182.883 734.703 R 219.14 757.116 R 219.14 757.116 Z 1@ef23648e"/>
  <g transform="matrix(1, 0, 0, 0.484652, 677.347117, 379.825689)">
    <rect x="-73.129" y="637.469" width="526" height="214.587" style="stroke: rgb(0, 0, 0); fill: none;"/>
    <line style="fill: rgb(216, 216, 216); stroke: rgb(0, 0, 0);" x1="-72.993" y1="637.583" x2="452.241" y2="851.579"/>
  </g>
  <path style="fill: url('#gradient-8');" d="M 837.416 765.631 C 837.416 765.631 860.7493333333333 668.6309999999999 872.416 668.631 C 884.0826666666665 668.6309999999999 907.416 765.631 907.416 765.631" bx:d="M 837.416 765.631 R 872.416 668.631 R 907.416 765.631 1@a12b0c84"/>
  <path style="transform-box: fill-box; transform-origin: 50% 50%;" d="M 901.003 753.073 C 901.003 753.073 855.2398012299335 743.7587233643193 849.541 737.944 C 847.5303038401029 735.8924032750449 846.7800398869969 732.8886865894166 847.787 731.501 C 849.3927306682648 729.2881507661605 858.3288475711429 729.0073317477157 864.746 730.66 C 874.9133803537627 733.2784989223569 901.003 753.073 901.003 753.073 C 901.0029999999999 753.073 901.003 753.073 901.003 753.073 C 901.003 753.073 901.0030000000002 753.0730000000001 901.003 753.073" transform="matrix(0.98747, -0.157806, 0.157806, 0.98747, -0.000006, -0.000003)" bx:d="M 901.003 753.073 R 849.541 737.944 R 847.787 731.501 R 864.746 730.66 R 901.003 753.073 R 901.003 753.073 Z 1@16d9f6b1"/>
  <path d="M 405.583 716.944 H 575.894 L 575.894 694.021 L 639.129 741.448 L 575.894 788.874 L 575.894 765.951 H 405.583 V 716.944 Z" style="fill: rgb(216, 216, 216); stroke: rgb(0, 0, 0); stroke-width: 2px;" bx:shape="arrow 405.583 694.021 233.546 94.853 49.007 63.235 0 1@57744be0"/>
  <path style="paint-order: fill; fill: url('#gradient-4');" d="M 862.466 275.035 C 862.466 275.035 847.4297914784144 60.81724201981428 864.059 28.301 C 869.5596085860941 17.545279437019964 878.6431124940078 12.198954863155233 885.845 12.357 C 893.1688320816056 12.517721205739802 902.9268634427237 20.718102541179558 907.63 29.818 C 914.7503884722324 43.59493464248686 913.2048783060628 72.48111692037138 911.398 93.7 C 909.5591677710845 115.29413057176541 902.3635176194675 133.60624458737885 896.365 158.249 C 888.2811389101181 191.4586401586043 866.733 274.912 866.733 274.912" bx:d="M 862.466 275.035 R 864.059 28.301 R 885.845 12.357 R 907.63 29.818 R 911.398 93.7 R 896.365 158.249 R 866.733 274.912 1@2af5a102"/>
  <path style="paint-order: fill; fill: url('#gradient-5'); transform-origin: 844.6px 405.761px;" d="M 822.492 537.102 C 822.492 537.102 807.4557914784142 322.8842420198142 824.085 290.368 C 829.5856085860939 279.61227943701994 838.6691124940081 274.2659548631553 845.871 274.424 C 853.194832081606 274.5847212057398 862.9528634427237 282.7851025411795 867.656 291.885 C 874.7763884722326 305.66193464248687 873.2308783060627 334.54811692037134 871.424 355.767 C 869.5851677710843 377.36113057176533 862.3895176194676 395.6732445873788 856.391 420.316 C 848.3071389101178 453.5256401586042 826.759 536.979 826.759 536.979" transform="matrix(-1, 0, 0, -1, -0.000009, 0.000045)" bx:d="M 822.492 537.102 R 824.085 290.368 R 845.871 274.424 R 867.656 291.885 R 871.424 355.767 R 856.391 420.316 R 826.759 536.979 1@2eed5e28"/>
  <ellipse style="fill: url('#gradient-6');" cx="864.735" cy="276.139" rx="35.359" ry="35.359"/>
  <ellipse style="fill: none; stroke: rgb(0, 0, 0);" cx="866.594" cy="274.219" rx="262.987" ry="262.987"/>
  <path d="M 431.876 251.966 H 602.187 L 602.187 229.043 L 665.422 276.47 L 602.187 323.896 L 602.187 300.973 H 431.876 V 251.966 Z" style="fill: rgb(216, 216, 216); stroke: rgb(0, 0, 0); stroke-width: 2px;" bx:shape="arrow 431.876 229.043 233.546 94.853 49.007 63.235 0 1@49a02e73"/>
</svg>